<svg width="143" height="78" viewBox="0 0 143 78" fill="none" xmlns="http://www.w3.org/2000/svg">
<path d="M91.784 45.95C91.784 46.8833 91.559 47.7583 91.109 48.575C90.6757 49.3917 89.984 50.05 89.034 50.55C88.1007 51.05 86.9173 51.3 85.484 51.3H82.559V58H79.059V40.55H85.484C86.834 40.55 87.984 40.7833 88.934 41.25C89.884 41.7167 90.5923 42.3583 91.059 43.175C91.5423 43.9917 91.784 44.9167 91.784 45.95ZM85.334 48.475C86.3007 48.475 87.0173 48.2583 87.484 47.825C87.9507 47.375 88.184 46.75 88.184 45.95C88.184 44.25 87.234 43.4 85.334 43.4H82.559V48.475H85.334ZM97.7689 39.5V58H94.2689V39.5H97.7689ZM100.327 51.025C100.327 49.625 100.602 48.3833 101.152 47.3C101.719 46.2167 102.477 45.3833 103.427 44.8C104.394 44.2167 105.469 43.925 106.652 43.925C107.685 43.925 108.585 44.1333 109.352 44.55C110.135 44.9667 110.76 45.4917 111.227 46.125V44.15H114.752V58H111.227V55.975C110.777 56.625 110.152 57.1667 109.352 57.6C108.569 58.0167 107.66 58.225 106.627 58.225C105.46 58.225 104.394 57.925 103.427 57.325C102.477 56.725 101.719 55.8833 101.152 54.8C100.602 53.7 100.327 52.4417 100.327 51.025ZM111.227 51.075C111.227 50.225 111.06 49.5 110.727 48.9C110.394 48.2833 109.944 47.8167 109.377 47.5C108.81 47.1667 108.202 47 107.552 47C106.902 47 106.302 47.1583 105.752 47.475C105.202 47.7917 104.752 48.2583 104.402 48.875C104.069 49.475 103.902 50.1917 103.902 51.025C103.902 51.8583 104.069 52.5917 104.402 53.225C104.752 53.8417 105.202 54.3167 105.752 54.65C106.319 54.9833 106.919 55.15 107.552 55.15C108.202 55.15 108.81 54.9917 109.377 54.675C109.944 54.3417 110.394 53.875 110.727 53.275C111.06 52.6583 111.227 51.925 111.227 51.075ZM125.845 43.95C127.495 43.95 128.829 44.475 129.845 45.525C130.862 46.5583 131.37 48.0083 131.37 49.875V58H127.87V50.35C127.87 49.25 127.595 48.4083 127.045 47.825C126.495 47.225 125.745 46.925 124.795 46.925C123.829 46.925 123.062 47.225 122.495 47.825C121.945 48.4083 121.67 49.25 121.67 50.35V58H118.17V44.15H121.67V45.875C122.137 45.275 122.729 44.8083 123.445 44.475C124.179 44.125 124.979 43.95 125.845 43.95ZM138.774 47.025V53.725C138.774 54.1917 138.882 54.5333 139.099 54.75C139.332 54.95 139.715 55.05 140.249 55.05H141.874V58H139.674C136.724 58 135.249 56.5667 135.249 53.7V47.025H133.599V44.15H135.249V40.725H138.774V44.15H141.874V47.025H138.774Z" fill="#3F826D"/>
<path d="M3.86225 33.104L3.54225 21.008C3.54225 19.088 3.32892 17.5733 2.90225 16.464C2.47558 15.3547 2.26225 14.7573 2.26225 14.672C2.26225 13.7333 3.69158 13.008 6.55025 12.496C9.45158 11.984 11.6489 11.728 13.1423 11.728C14.6783 11.728 15.5103 12.0907 15.6383 12.816C18.3263 24.8053 20.5876 33.1253 22.4223 37.776C22.6356 38.288 22.8489 38.544 23.0623 38.544C23.3183 38.544 23.5316 38.352 23.7023 37.968C26.5609 29.904 29.0783 21.9253 31.2543 14.032C31.4249 13.52 31.8516 13.136 32.5343 12.88C33.2169 12.5813 34.3903 12.304 36.0543 12.048C37.7609 11.792 39.4463 11.664 41.1103 11.664C42.7743 11.664 43.6063 12.0053 43.6063 12.688C43.6063 12.7307 43.5423 13.072 43.4143 13.712C43.2863 14.3093 43.1583 15.056 43.0303 15.952C42.9023 16.848 42.7529 17.936 42.5823 19.216C42.1983 22.16 41.9423 25.552 41.8143 29.392C41.7289 33.1893 41.6863 37.008 41.6863 40.848L41.8143 47.568C41.8143 50.64 42.0063 52.8373 42.3903 54.16C42.8169 55.44 43.0303 56.1867 43.0303 56.4C43.0303 56.5707 42.8809 56.784 42.5823 57.04C41.2596 58.1067 39.2543 58.64 36.5662 58.64C34.8596 58.64 33.8996 58.064 33.6863 56.912C33.5583 56.3147 33.4943 55.376 33.4943 54.096C33.4943 52.7733 33.6223 48.7627 33.8783 42.064C34.1343 35.3653 34.2623 30.5013 34.2623 27.472C34.2623 24.4 34.0916 22.864 33.7503 22.864C33.7076 22.864 33.6863 22.8853 33.6863 22.928C33.6863 22.928 33.6223 22.9493 33.4943 22.992C33.3663 23.0347 33.0249 23.696 32.4703 24.976C31.9583 26.256 30.9129 29.4133 29.3343 34.448C27.7556 39.4827 26.3263 44.1973 25.0463 48.592C23.7663 52.944 23.0623 55.2907 22.9343 55.632C22.4649 56.784 21.5689 57.36 20.2463 57.36C19.6063 57.36 19.0943 57.1253 18.7103 56.656C17.3449 50.3413 14.9129 41.3173 11.4143 29.584L9.62225 23.76C9.53692 23.5467 9.45158 23.44 9.36625 23.44C9.15292 23.44 9.00358 23.5893 8.91825 23.888C8.74758 26.6613 8.66225 32.1227 8.66225 40.272C8.66225 48.3787 8.96092 53.4987 9.55825 55.632C9.60092 55.7173 9.62225 55.8453 9.62225 56.016C9.62225 56.912 8.91825 57.5733 7.51025 58C6.10225 58.384 4.82225 58.576 3.67025 58.576C2.56092 58.576 2.00625 58.32 2.00625 57.808C2.00625 57.7653 2.11292 57.424 2.32625 56.784C2.96625 54.608 3.37158 51.4507 3.54225 47.312C3.75558 43.1733 3.86225 38.4373 3.86225 33.104ZM61.3542 31.184C61.5249 31.184 61.8449 31.3547 62.3143 31.696C62.7836 32.0373 63.2743 32.208 63.7863 32.208H63.8503C65.3009 32.208 66.4529 31.632 67.3063 30.48C68.1596 29.328 68.6289 28.176 68.7143 27.024L68.9063 25.296C68.9063 23.6747 68.6503 22.288 68.1383 21.136C67.6689 19.9413 67.1143 19.0667 66.4743 18.512C65.8343 17.9147 65.0876 17.4667 64.2343 17.168C63.1676 16.7413 62.0369 16.528 60.8423 16.528C59.6903 16.528 58.7516 16.656 58.0263 16.912C57.3009 17.1253 56.8956 17.3387 56.8103 17.552L56.7463 17.936C56.3623 23.696 56.1703 28.8587 56.1703 33.424C56.1703 37.9467 56.2343 41.8507 56.3623 45.136C56.5329 48.4213 56.6823 50.96 56.8103 52.752C56.9809 54.5013 57.0663 55.4613 57.0663 55.632C57.0663 56.6987 56.1276 57.552 54.2503 58.192C52.3729 58.832 50.5169 59.152 48.6823 59.152C47.8289 59.152 47.4023 58.9387 47.4023 58.512C47.4023 58.384 47.4663 58.0853 47.5943 57.616C48.4049 55.7387 48.8103 47.0133 48.8103 31.44C48.8103 22.2667 48.1916 17.0187 46.9543 15.696C46.6983 15.44 46.5703 15.184 46.5703 14.928C46.5703 14.6293 46.8689 14.3093 47.4663 13.968C48.1063 13.6267 49.8556 13.2427 52.7143 12.816C55.5729 12.3467 58.6023 12.112 61.8022 12.112C66.8369 12.112 70.6129 13.4773 73.1303 16.208C75.6903 18.9387 76.9703 22.2027 76.9703 26C76.9703 29.7547 75.9249 33.0187 73.8343 35.792C71.7863 38.5653 69.0983 39.952 65.7703 39.952C64.7036 39.952 63.6369 39.76 62.5703 39.376C60.4369 38.608 59.3703 37.008 59.3703 34.576C59.3703 34.064 59.5409 33.3813 59.8823 32.528C60.2236 31.632 60.7143 31.184 61.3542 31.184Z" fill="#1F2041"/>
</svg>
